<?xml version="1.0" standalone="no"?>
<!DOCTYPE svg PUBLIC "-//W3C//DTD SVG 20010904//EN"
 "http://www.w3.org/TR/2001/REC-SVG-20010904/DTD/svg10.dtd">
<svg version="1.0" xmlns="http://www.w3.org/2000/svg"
 width="352.000000pt" height="352.000000pt" viewBox="0 0 352.000000 352.000000"
 preserveAspectRatio="xMidYMid meet">
<metadata>
Created by potrace 1.11, written by Peter Selinger 2001-2013
</metadata>
<g transform="translate(0.000000,352.000000) scale(0.100000,-0.100000)"
fill="#000000" stroke="none">
<path d="M1510 3125 c-7 -8 -21 -15 -31 -15 -10 0 -21 -4 -24 -10 -10 -17 -28
-11 -21 7 6 15 5 15 -13 -1 -11 -10 -26 -16 -34 -13 -7 3 -19 -4 -26 -15 -9
-14 -19 -18 -36 -14 -12 3 -39 -1 -59 -9 -19 -8 -49 -15 -65 -15 -21 0 -35 -7
-47 -25 -9 -14 -21 -22 -26 -19 -13 8 -84 -68 -108 -115 -29 -58 -49 -140 -53
-226 -3 -44 -8 -88 -12 -97 -4 -9 -8 -41 -10 -70 -2 -29 -6 -73 -9 -98 -7 -55
13 -129 58 -213 18 -34 39 -79 45 -99 8 -25 17 -35 27 -31 9 3 14 -1 14 -12 0
-10 6 -15 18 -13 9 2 16 10 15 16 -2 7 0 11 5 11 31 -5 46 21 20 37 -7 4 -8 3
-4 -4 4 -7 1 -12 -9 -12 -13 0 -16 6 -11 25 6 25 -8 36 -17 13 -3 -9 -10 -7
-21 7 -14 16 -16 33 -10 90 3 39 7 88 8 110 4 60 5 65 17 65 6 0 29 16 52 35
22 19 51 35 64 35 36 0 27 -16 -17 -29 -22 -6 -40 -16 -40 -21 0 -6 -6 -10
-13 -10 -21 0 -51 -83 -48 -132 1 -17 4 -17 41 -2 22 9 46 14 54 11 8 -3 17
-1 20 6 3 9 5 9 5 0 1 -21 21 -15 63 19 39 30 41 31 54 13 8 -10 14 -34 14
-52 0 -36 6 -39 34 -18 16 12 18 27 17 106 -2 88 -3 93 -34 126 -52 56 -85 65
-165 48 -37 -9 -77 -20 -88 -24 -19 -8 -22 -6 -27 17 -7 42 1 126 12 130 6 2
9 8 5 13 -9 14 6 49 21 49 8 0 16 17 20 42 4 23 18 53 31 67 13 14 24 29 24
33 0 4 10 10 23 14 12 4 49 19 82 33 104 47 128 53 195 52 110 -3 166 -19 208
-63 20 -21 45 -38 55 -38 21 0 51 -46 67 -106 9 -32 22 -50 46 -65 39 -24 74
-92 104 -204 24 -89 40 -123 69 -147 22 -19 27 -43 11 -53 -18 -11 -11 -45 10
-46 11 -1 25 -2 32 -3 7 -1 15 14 19 33 6 29 3 38 -20 60 -42 39 -45 58 -13
88 15 14 26 33 24 44 -4 24 25 26 31 2 3 -12 5 -10 6 7 1 14 -19 66 -43 115
-24 50 -58 119 -75 155 -30 63 -73 126 -156 226 -85 102 -94 109 -230 169 -55
24 -110 29 -125 10z m-180 -717 c0 -7 -18 -28 -40 -46 -22 -18 -40 -28 -40
-23 0 6 5 11 10 11 6 0 10 10 10 23 0 13 5 28 12 35 16 16 48 15 48 0z m-127
-42 c6 -15 -1 -26 -15 -26 -4 0 -8 9 -8 20 0 23 15 27 23 6z"/>
<path d="M1645 2621 c-57 -8 -90 -23 -104 -49 -9 -16 -11 -92 -3 -92 2 0 17 9
33 21 l30 21 -6 -29 c-5 -19 -4 -24 3 -15 14 21 47 10 50 -16 4 -26 3 -26 45
-8 18 7 46 11 63 9 33 -5 60 17 51 41 -8 19 -71 50 -75 36 -2 -5 -20 -10 -40
-10 -25 0 -32 3 -23 9 7 5 23 7 35 4 14 -3 11 1 -9 11 -29 15 -26 15 51 9 51
-3 84 -2 88 5 10 16 -5 44 -21 38 -8 -3 -24 1 -36 9 -22 16 -47 17 -132 6z"/>
<path d="M1490 2220 c-15 -28 -12 -30 30 -16 40 13 43 29 6 34 -17 2 -28 -3
-36 -18z"/>
<path d="M1380 2205 c-14 -17 15 -35 54 -35 39 0 38 14 -4 32 -33 13 -41 14
-50 3z"/>
<path d="M1085 2200 c-3 -5 -1 -10 4 -10 6 0 11 5 11 10 0 6 -2 10 -4 10 -3 0
-8 -4 -11 -10z"/>
<path d="M1340 2186 c0 -15 11 -33 26 -45 15 -12 22 -21 17 -21 -5 0 -15 -11
-21 -25 -6 -13 -29 -33 -50 -44 -24 -12 -44 -32 -52 -50 -14 -35 -43 -41 -59
-14 -5 10 -13 14 -18 10 -14 -14 -12 -68 3 -74 8 -3 14 -13 15 -22 0 -12 2
-12 9 4 8 18 9 18 9 -6 1 -14 -6 -34 -14 -45 -16 -22 -20 -58 -5 -49 6 3 10
-1 10 -9 0 -8 14 -35 30 -60 17 -24 37 -63 45 -86 8 -23 24 -55 35 -71 13 -17
16 -29 10 -29 -7 0 4 -16 23 -35 19 -19 42 -35 51 -35 9 0 19 -6 22 -14 6 -17
86 -39 108 -30 20 8 21 24 2 24 -7 0 -19 7 -26 15 -18 21 2 42 54 56 107 29
201 81 224 125 7 13 20 24 29 24 13 0 14 3 6 11 -14 14 -6 67 13 90 22 24 17
31 -16 24 -18 -4 -36 -2 -45 5 -11 9 -16 7 -24 -8 -16 -30 -39 -34 -61 -12
-21 21 -50 26 -65 11 -14 -13 -67 -17 -84 -7 -8 5 -16 4 -21 -4 -5 -8 -10 -2
-15 19 -3 17 -11 31 -17 31 -6 0 -8 -11 -4 -26 5 -18 3 -24 -5 -18 -7 4 -19
-2 -28 -15 -13 -17 -23 -21 -44 -16 -15 4 -27 13 -27 21 0 8 -6 14 -14 14 -7
0 -19 7 -26 15 -9 10 -17 12 -30 5 -15 -8 -22 -1 -46 45 -15 30 -25 58 -21 61
3 3 14 -11 25 -32 l19 -37 6 33 c4 17 4 36 1 41 -7 12 5 11 61 -6 27 -8 52
-12 57 -9 4 3 8 0 8 -5 0 -6 17 -18 37 -26 31 -13 40 -13 48 -3 5 7 16 13 23
14 25 2 29 5 40 29 l11 24 -63 -6 c-60 -5 -63 -4 -69 18 -8 29 -10 27 54 45
81 23 210 26 232 7 15 -15 17 -15 17 0 0 8 3 22 6 30 3 8 -5 26 -18 41 -17 20
-35 28 -73 31 -27 3 -72 13 -100 23 -56 21 -85 19 -85 -5 0 -14 -2 -14 -18 0
-10 10 -33 17 -50 17 -35 0 -64 23 -56 45 4 8 1 15 -5 15 -6 0 -11 -11 -11
-24z m140 -96 c0 -5 16 -10 35 -10 39 0 46 -14 15 -30 -18 -10 -100 -12 -100
-2 0 2 8 14 18 27 18 26 32 32 32 15z m120 -20 c0 -5 -7 -10 -15 -10 -8 0 -15
5 -15 10 0 6 7 10 15 10 8 0 15 -4 15 -10z"/>
<path d="M2032 2119 c2 -6 8 -10 13 -10 5 0 11 4 13 10 2 6 -4 11 -13 11 -9 0
-15 -5 -13 -11z"/>
<path d="M1108 2008 c-10 -12 -14 -24 -10 -27 9 -8 9 -72 -1 -88 -12 -19 4
-15 20 5 13 15 14 15 9 0 -2 -9 1 -18 8 -21 17 -7 21 113 4 136 -12 15 -14 15
-30 -5z"/>
<path d="M1966 1950 c-32 -32 -56 -64 -54 -72 3 -9 13 -4 30 15 14 15 32 27
40 27 9 0 18 8 22 18 12 34 24 72 23 71 -1 0 -28 -27 -61 -59z"/>
<path d="M2054 1825 c4 -38 11 -144 15 -235 4 -99 13 -176 20 -191 14 -29 65
-60 54 -34 -6 17 22 21 32 5 11 -17 -110 -178 -149 -200 -16 -8 -25 -19 -21
-27 2 -8 0 -11 -5 -8 -6 4 -15 -7 -21 -24 -12 -35 -13 -35 -40 -20 -16 8 -45
5 -122 -11 -79 -17 -123 -21 -197 -18 -106 6 -159 23 -203 68 -26 27 -28 31
-13 45 18 19 21 77 6 106 -6 11 -8 24 -4 31 4 6 7 34 8 62 1 42 4 51 19 50 9
-1 17 2 17 7 0 5 -9 9 -19 9 -11 0 -22 6 -25 13 -5 9 -7 9 -12 -2 -4 -7 -15
-22 -26 -33 -11 -11 -20 -33 -20 -49 -1 -21 -6 -29 -19 -29 -14 0 -20 -10 -25
-40 -4 -22 -10 -40 -15 -40 -18 0 -24 -2 -36 -11 -7 -7 -13 -5 -16 3 -2 8 -27
-10 -63 -48 -32 -33 -52 -51 -43 -40 22 28 41 66 34 66 -4 0 -21 -11 -38 -24
-18 -13 -56 -31 -85 -41 -59 -19 -102 -51 -143 -109 -29 -39 -41 -28 -18 16
27 51 -22 32 -116 -44 -45 -35 -75 -67 -75 -78 0 -25 -19 -35 -26 -15 -17 43
-86 31 -114 -19 -7 -14 -17 -26 -21 -26 -18 0 -79 -63 -79 -81 0 -15 -7 -19
-39 -19 -41 0 -48 -10 -49 -78 -1 -12 -15 -68 -33 -125 -17 -56 -38 -127 -45
-157 -22 -96 -38 -145 -57 -173 -9 -15 -24 -57 -33 -94 -8 -38 -22 -87 -30
-111 -8 -23 -14 -45 -14 -47 0 -3 156 -5 348 -5 l347 0 -3 71 c-2 39 -1 87 3
106 7 39 26 49 121 65 54 9 65 8 102 -11 29 -15 60 -21 104 -21 35 0 70 0 78
-1 8 0 51 4 95 9 78 10 95 9 95 -7 0 -10 -127 -22 -252 -23 -74 -1 -102 2
-115 14 -10 8 -29 18 -42 21 -31 8 -163 -20 -173 -35 -7 -12 -2 -118 8 -166 4
-22 9 -23 85 -21 63 1 79 5 75 15 -3 8 -1 14 5 14 5 0 12 -7 15 -15 4 -11 21
-15 56 -15 30 0 47 4 43 10 -12 19 5 46 40 63 38 18 44 31 19 41 -25 9 -64 7
-64 -4 0 -5 -5 -10 -11 -10 -5 0 -7 5 -3 11 3 6 1 15 -6 19 -14 9 48 30 88 30
33 0 51 -49 24 -70 -10 -9 -17 -20 -15 -26 2 -6 -5 -14 -16 -17 -14 -3 -18
-10 -14 -26 5 -18 12 -22 42 -19 35 3 36 4 57 78 l21 75 47 3 c45 3 47 2 37
-17 -13 -24 -31 -36 -31 -21 0 6 -4 8 -10 5 -5 -3 -10 -18 -10 -33 0 -15 -7
-40 -15 -56 -8 -15 -15 -30 -15 -32 0 -2 37 -4 83 -4 81 0 82 1 105 33 12 17
22 25 22 18 0 -8 -7 -23 -17 -33 -16 -17 -8 -18 236 -18 l252 0 24 24 c13 13
29 43 36 66 11 37 10 49 -5 92 -17 49 -17 50 3 65 30 20 29 86 -1 107 -31 22
-96 20 -142 -4 -28 -16 -41 -18 -51 -10 -9 8 -27 5 -64 -10 -61 -24 -67 -24
-52 -6 16 19 98 47 117 39 8 -3 37 5 65 17 59 25 119 20 150 -11 27 -27 26
-102 -1 -129 -19 -19 -19 -22 -5 -43 23 -32 19 -97 -10 -151 l-24 -46 312 0
313 0 17 35 c16 35 37 47 37 22 0 -7 -7 -23 -16 -35 -15 -22 -14 -22 24 -22
24 0 60 11 95 30 31 16 65 30 76 30 20 0 37 -32 26 -50 -4 -7 74 -10 229 -10
182 0 236 3 236 13 0 6 -14 113 -31 237 -18 134 -34 302 -38 415 -7 173 -11
199 -40 292 -20 64 -44 118 -64 144 -35 46 -135 113 -185 124 -18 3 -36 14
-41 22 -4 9 -20 16 -35 16 -33 0 -98 -60 -127 -115 -10 -20 -23 -39 -29 -43
-21 -13 -9 15 35 78 50 73 55 92 25 84 -11 -3 -20 -1 -20 4 0 4 -17 13 -37 18
-21 5 -64 16 -96 25 l-58 15 -11 -25 c-11 -24 -28 -33 -28 -13 0 5 -4 8 -9 5
-5 -3 -11 1 -15 9 -3 8 -1 15 4 15 6 0 10 5 10 11 0 5 -8 9 -17 8 -10 -2 -27
2 -38 8 -11 6 -44 13 -74 17 -34 5 -69 17 -95 35 -23 15 -47 26 -55 23 -8 -2
-11 0 -7 6 6 11 -56 52 -79 52 -9 0 -15 -14 -17 -42 -2 -23 -9 -43 -16 -46
-17 -5 -53 79 -62 147 -11 79 -68 342 -76 350 -4 3 -3 -25 0 -64z m543 -577
c-3 -8 -6 -5 -6 6 -1 11 2 17 5 13 3 -3 4 -12 1 -19z m353 -22 c0 -2 -7 -7
-16 -10 -8 -3 -12 -2 -9 4 6 10 25 14 25 6z m-70 -51 c-18 -19 -36 -32 -39
-29 -6 6 54 64 66 64 4 0 -8 -16 -27 -35z m-730 -43 c0 -13 -12 -22 -22 -16
-10 6 -1 24 13 24 5 0 9 -4 9 -8z m-1062 -27 c-23 -27 -34 -33 -22 -12 14 23
26 37 35 37 5 0 -1 -11 -13 -25z m978 10 c-16 -9 -34 -14 -40 -11 -6 2 0 8 14
14 39 16 59 14 26 -3z m-430 -891 c18 -15 18 -15 -6 -10 -14 3 -36 6 -50 6
-20 0 -22 2 -10 10 22 14 43 12 66 -6z m84 8 c0 -4 -14 -9 -31 -10 -19 -2 -28
2 -24 8 7 12 55 14 55 2z m-675 -129 c-9 -15 -14 -20 -11 -10 4 11 9 31 13 45
5 19 8 22 11 10 2 -9 -4 -29 -13 -45z m515 -30 c-11 -17 -11 -17 -6 0 3 10 7
26 7 35 1 15 2 15 6 0 2 -10 -1 -25 -7 -35z"/>
<path d="M1876 1845 c-9 -26 -7 -32 5 -12 6 10 9 21 6 23 -2 3 -7 -2 -11 -11z"/>
<path d="M1530 1819 c0 -5 5 -7 10 -4 6 3 10 8 10 11 0 2 -4 4 -10 4 -5 0 -10
-5 -10 -11z"/>
</g>
</svg>
